<?xml version="1.0" standalone="no"?>
<!DOCTYPE svg PUBLIC "-//W3C//DTD SVG 20010904//EN"
 "http://www.w3.org/TR/2001/REC-SVG-20010904/DTD/svg10.dtd">
<svg version="1.0" xmlns="http://www.w3.org/2000/svg"
 width="270.000000pt" height="270.000000pt" viewBox="0 0 270.000000 270.000000"
 preserveAspectRatio="xMidYMid meet">
<metadata>
Created by potrace 1.14, written by Peter Selinger 2001-2017
</metadata>
<g transform="translate(0.000000,270.000000) scale(0.100000,-0.100000)"
fill="#000000" stroke="none">
<path d="M1725 2538 c-67 -23 -124 -105 -130 -187 -5 -58 14 -132 77 -298 l50
-132 -134 -213 c-117 -186 -163 -263 -250 -418 -30 -53 -84 -188 -123 -305
-19 -59 -43 -117 -53 -130 -18 -23 -19 -23 -68 -6 -125 42 -300 192 -352 302
-76 158 -74 412 3 543 27 46 111 134 161 167 108 74 232 113 339 107 72 -4 93
-11 182 -67 28 -18 59 -31 70 -29 15 4 12 10 -21 42 -65 63 -114 79 -246 82
-127 4 -198 -10 -284 -53 -57 -29 -120 -75 -153 -113 -12 -14 -32 -36 -44 -50
-30 -34 -85 -153 -103 -220 -9 -36 -13 -90 -11 -155 3 -106 5 -120 30 -196 53
-159 260 -354 421 -398 64 -17 94 -46 94 -89 0 -21 9 -71 20 -111 39 -140 112
-261 230 -383 70 -72 100 -92 100 -69 0 10 -61 92 -139 186 -80 97 -164 271
-175 362 -4 41 5 45 179 69 247 33 380 89 500 209 95 94 150 201 172 335 5 25
8 110 7 190 0 176 -9 211 -105 407 -80 162 -84 187 -48 303 32 105 35 212 7
262 -34 59 -123 84 -203 56z m140 -73 c36 -73 28 -285 -12 -285 -38 0 -93 127
-93 216 0 113 63 154 105 69z m-100 -681 c17 -34 20 -64 22 -254 2 -157 -1
-235 -12 -290 -55 -281 -188 -406 -439 -412 -94 -3 -100 2 -93 68 18 173 427
951 491 931 6 -2 20 -21 31 -43z"/>
</g>
</svg>
