<svg fill="none" xmlns="http://www.w3.org/2000/svg" viewBox="0 0 36 36"><path d="M5.395 6.293a.9.9 0 0 1 .9-.9h.788c1.309 0 2.061.851 2.497 1.7.297.582.51 1.291.689 1.907H28.8a1.8 1.8 0 0 1 1.732 2.29l-2.693 9.495a3.6 3.6 0 0 1-3.463 2.615h-9.143a3.6 3.6 0 0 1-3.474-2.651l-1.155-4.24a.96.96 0 0 1-.018-.057L8.73 10.157l-.18-.606c-.18-.623-.338-1.174-.576-1.636-.286-.558-.549-.72-.893-.72h-.788a.9.9 0 0 1-.9-.9l.002-.002Zm6.926 9.673 1.175 4.313a1.8 1.8 0 0 0 1.737 1.325h9.144a1.8 1.8 0 0 0 1.73-1.309L28.8 10.8h-18l1.521 5.164v.002ZM18 27.9a2.7 2.7 0 1 1-5.4 0 2.7 2.7 0 0 1 5.4 0Zm-1.8 0a.9.9 0 1 0-1.8 0 .9.9 0 0 0 1.8 0ZM27 27.9a2.7 2.7 0 1 1-5.4 0 2.7 2.7 0 0 1 5.4 0Zm-1.8 0a.9.9 0 1 0-1.8 0 .9.9 0 0 0 1.8 0Z" fill="#E34337"/></svg>