<svg fill="none" xmlns="http://www.w3.org/2000/svg" viewBox="0 0 18 18"><path d="M12 18c-1.967 0-3.717-.558-5.25-1.675S4.133 13.767 3.5 12H0v-2h3.05A2.817 2.817 0 0 1 3 9.5v-1c0-.15.017-.317.05-.5H0V6h3.5c.633-1.767 1.717-3.208 3.25-4.325S10.033 0 12 0c1.15 0 2.238.2 3.263.6A8.69 8.69 0 0 1 18 2.3l-1.75 1.75a6.882 6.882 0 0 0-1.962-1.138A6.406 6.406 0 0 0 12 2.5c-1.25 0-2.387.321-3.412.963A6.33 6.33 0 0 0 6.25 6H12v2H5.6a7.37 7.37 0 0 0-.075.5c-.017.15-.025.317-.025.5s.008.35.025.5c.017.15.042.317.075.5H12v2H6.25a6.338 6.338 0 0 0 2.338 2.538c1.025.641 2.162.962 3.412.962.8 0 1.57-.138 2.312-.413a6.123 6.123 0 0 0 1.938-1.137L18 15.7a8.69 8.69 0 0 1-2.737 1.7c-1.025.4-2.113.6-3.263.6Z" /></svg>