<svg viewBox="0 0 36 36" fill="none" xmlns="http://www.w3.org/2000/svg"><path d="M31.5 14.583C31.5 24.792 18 33.542 18 33.542S4.5 24.792 4.5 14.583c0-3.48 1.422-6.819 3.954-9.28C10.986 2.84 14.42 1.458 18 1.458c3.58 0 7.014 1.383 9.546 3.845 2.532 2.461 3.954 5.8 3.954 9.28Z" stroke="#000" stroke-width="2" stroke-linecap="round" stroke-linejoin="round"/><path d="M18 18.958c2.485 0 4.5-1.958 4.5-4.375 0-2.416-2.015-4.375-4.5-4.375s-4.5 1.96-4.5 4.375c0 2.417 2.015 4.375 4.5 4.375Z" stroke="#000" stroke-width="2" stroke-linecap="round" stroke-linejoin="round"/></svg>