<svg viewBox="0 0 79 81" fill="none" xmlns="http://www.w3.org/2000/svg"><path fill-rule="evenodd" clip-rule="evenodd" d="M33.67 53.83c-1.73.64-2.29 2.52-2.55 8.64-.26 5.8-.87 8.07-2.32 8.53-1.16.37-1.43-.17-1.43-2.88 0-2.48-.06-2.66-.98-3.09-1.44-.66-2.08.4-1.94 3.24.09 1.84-.02 2.3-.63 2.76-1.74 1.28-2.9-.38-2.72-3.9.2-3.64 1.92-4.82 4.83-3.3.62.32 1.23.5 1.35.38.11-.12-.58-.57-1.54-1-4.4-1.96-8.7 1.14-7.7 5.58.43 1.99 1.85 3.14 3.87 3.14 1.13 0 1.8-.23 2.29-.77l.68-.76.8.76c1.3 1.23 2.97 1 4.2-.56l1.05-1.33.18 1.23c.17 1.13.3 1.24 1.5 1.24h1.31l.1-3.78c.11-3.97.44-4.73 2.03-4.73.58 0 .68.34.68 2.41 0 4.74.83 6.29 3.38 6.29 1.3 0 1.61-.19 2.57-1.53.98-1.37 1.12-1.45 1.34-.77.67 2.14 4.56 3.13 6 1.53l.68-.76.8.76c2.42 2.3 5.34-.41 6.02-5.6.17-1.27.44-1.95.77-1.95.4 0 .51.74.51 3.23 0 2.93.1 3.32.92 4.16 1.7 1.71 4 1.07 5.35-1.5.36-.68.4-.68.84.2a3.78 3.78 0 0 0 3.65 2.22c1.08 0 1.83-.23 2.31-.72.7-.71.73-.71 1.37 0 .88.99 2.93.95 3.93-.06A7.4 7.4 0 0 0 79 66.93c0-.5-.31.02-.72 1.2-.81 2.38-2.06 3.68-2.87 3-.34-.29-.51-1.28-.51-2.98 0-2.78-.5-3.66-1.84-3.23-.87.28-1.38 2.27-1 3.83.31 1.24-.63 2.8-1.68 2.8-1.71 0-2.46-4.84-1.1-7.09.85-1.42 2.26-1.63 4.17-.63.63.32 1.24.5 1.35.38.12-.12-.6-.58-1.6-1.02-1.62-.73-2-.76-3.78-.36-2.35.53-3.66 1.86-4 4.08-.3 1.9-1.75 4.07-2.7 4.07-.68 0-.74-.31-.84-4.06l-.1-4.07h-2.01c-1.83 0-2.03-.08-2.24-.94-.26-1.05-1.5-1.31-1.85-.4-.22.59.65 1.72 1.32 1.72 1.03 0-.72 6.4-2.06 7.51-1.23 1.03-1.75.27-1.75-2.6 0-2.5-.06-2.68-.97-3.1-1.44-.67-2.13.4-1.93 3 .12 1.58 0 2.15-.56 2.77-1.54 1.66-2.89.05-2.9-3.46 0-3.63 1.97-5.06 4.88-3.54.61.31 1.1.42 1.1.23 0-.74-3.04-1.6-4.74-1.35-2.48.38-3.7 1.63-4.61 4.7-.76 2.6-2.34 4.59-3.07 3.86-.17-.18-.39-1.82-.47-3.65-.17-3.63-.61-4.53-2.42-4.93a4.25 4.25 0 0 0-2.07.18c-.58.22-1.13.33-1.21.24-.1-.1.27-1.55.8-3.25 1.1-3.54 1.2-5 .37-5.85a2.94 2.94 0 0 0-.65-.56l-1.07.4Zm1.75 1.08c.2.67-.7 5.18-1.14 5.62-.26.27-.21-5.08.05-5.77.32-.82.8-.76 1.09.15Zm-24.3.47c-.77 1.1-.74 1.77.15 4.14l.74 1.96-1.81 2.86c-2.29 3.62-3.22 5.47-3.76 7.5-.23.88-.6 1.6-.83 1.6-.95 0-3.41-1.78-4.16-3C.33 68.6.3 65.23 1.4 63.74c1.83-2.51 5.3-3.6 7.1-2.22 1.09.83 1.6.66.59-.2-.63-.52-1.45-.74-2.85-.74-4.6 0-7.52 4.73-5.68 9.2.64 1.54 2.97 3.62 4.39 3.91.67.14 1.1.46 1.1.84 0 1.46.83 3.42 2.08 4.89.73.87 1.51 1.58 1.73 1.58.22 0-.29-.75-1.12-1.66-1.24-1.36-2.31-3.58-2.32-4.8 0-.14.93-.34 2.07-.46 4.9-.5 7.49-3.23 7.45-7.83a8.06 8.06 0 0 0-1.12-4.54c-1.06-1.99-1.09-2.14-.6-3.71.7-2.19.17-3.46-1.41-3.46-.73 0-1.32.29-1.7.84Zm2.71 1.02c.07.68.01 1.51-.12 1.86-.21.56-.3.55-.77-.11-.56-.77-.72-2.54-.28-3 .52-.52 1.06.04 1.17 1.25Zm43.4 5.63c.07.24-.13.44-.45.44a.6.6 0 0 1-.6-.6c0-.66.81-.55 1.04.16Zm-44.68 1.04c.13.33.23 1.9.23 3.5 0 4.48-1.54 6.77-4.68 6.96-1.4.1-1.49.04-1.38-.85.25-1.86 4.6-10.14 5.36-10.19.13 0 .35.25.47.58Z" fill="#000"/><path fill-rule="evenodd" clip-rule="evenodd" d="M37.9 1.6c-1.45 2.09-1.4 3.37.3 7.88l1.4 3.75-3.44 5.44c-4.37 6.88-6.14 10.41-7.17 14.26-.45 1.68-1.16 3.05-1.58 3.05-1.81 0-6.5-3.38-7.93-5.7-2.14-3.5-2.19-9.93-.1-12.77 3.5-4.78 10.1-6.83 13.53-4.22 2.08 1.59 3.07 1.27 1.13-.36-1.2-1.01-2.76-1.42-5.43-1.42-8.77 0-14.35 9-10.83 17.5 1.22 2.95 5.66 6.9 8.37 7.45 1.27.26 2.08.88 2.08 1.6.01 2.78 1.6 6.51 3.98 9.3 1.4 1.66 2.89 3.02 3.3 3.02.41 0-.55-1.43-2.14-3.17-2.36-2.58-4.4-6.8-4.42-9.15 0-.24 1.77-.62 3.95-.85 9.33-.97 14.27-6.16 14.2-14.92-.04-3.78-.45-5.46-2.15-8.63-2.01-3.78-2.06-4.07-1.12-7.06 1.3-4.17.31-6.6-2.7-6.6-1.38 0-2.5.56-3.23 1.6Zm5.18 1.94c.13 1.3.02 2.89-.23 3.55-.4 1.06-.56 1.04-1.47-.21-1.07-1.46-1.38-4.84-.53-5.7 1-1 2 .08 2.23 2.36Zm-2.44 12.71c.23.63.43 3.62.43 6.66 0 8.53-2.93 12.89-8.92 13.26-2.67.16-2.84.06-2.62-1.63.46-3.54 8.76-19.3 10.21-19.4.26-.01.66.49.9 1.11Z" fill="#928983"/></svg>