<svg fill="none" xmlns="http://www.w3.org/2000/svg" viewBox="0 0 32 31"><g clip-path="url(#a)" ><path d="M4 30.5h18.75a3.754 3.754 0 0 0 3.75-3.75v-10a1.25 1.25 0 0 0-2.5 0v10A1.252 1.252 0 0 1 22.75 28H4a1.251 1.251 0 0 1-1.25-1.25V9.25A1.251 1.251 0 0 1 4 8h11.25a1.25 1.25 0 0 0 0-2.5H4A3.754 3.754 0 0 0 .25 9.25v17.5A3.754 3.754 0 0 0 4 30.5Z"/><path d="M25.25.5a6.25 6.25 0 1 0 6.25 6.25A6.258 6.258 0 0 0 25.25.5Zm0 10a3.75 3.75 0 1 1 0-7.5 3.75 3.75 0 0 1 0 7.5ZM6.5 13h6.25a1.25 1.25 0 0 0 0-2.5H6.5a1.25 1.25 0 0 0 0 2.5ZM5.25 16.75A1.25 1.25 0 0 0 6.5 18h11.25a1.25 1.25 0 0 0 0-2.5H6.5a1.25 1.25 0 0 0-1.25 1.25Z"/></g><defs><clipPath id="a"><path  d="M0 0h32v31H0z"/></clipPath></defs></svg>