<svg fill="none" xmlns="http://www.w3.org/2000/svg" viewBox="0 0 158 157"><rect rx="78.5" fill="#D9D9D9"/><path d="M102.035 65.813h-2.858l.348-3.724a6.984 6.984 0 0 0-.278-2.704 6.68 6.68 0 0 0-1.28-2.351 6.177 6.177 0 0 0-2.065-1.595 5.814 5.814 0 0 0-2.492-.564H61.493c-.859 0-1.708.192-2.493.564a6.179 6.179 0 0 0-2.064 1.595 6.68 6.68 0 0 0-1.282 2.352 6.983 6.983 0 0 0-.277 2.705l3.279 34.998c.055.525.169 1.04.34 1.536h-6.128c-.543 0-1.064.23-1.449.64-.384.41-.6.967-.6 1.547 0 .581.216 1.137.6 1.547.385.411.906.641 1.45.641h49.166c.543 0 1.064-.23 1.448-.641.385-.41.6-.966.6-1.547a2.26 2.26 0 0 0-.6-1.546 1.984 1.984 0 0 0-1.448-.641h-6.127c.17-.495.284-1.01.339-1.534L97.333 85.5h4.702c1.629-.002 3.191-.694 4.343-1.924 1.153-1.23 1.801-2.899 1.803-4.638v-6.563c-.002-1.74-.65-3.408-1.803-4.638-1.152-1.23-2.714-1.923-4.343-1.924ZM64.771 98.624c-.509.002-1-.2-1.376-.563a2.233 2.233 0 0 1-.661-1.406l-3.28-34.998a2.332 2.332 0 0 1 .092-.903c.09-.29.235-.557.427-.784.192-.227.427-.408.688-.532a1.94 1.94 0 0 1 .832-.189H93.41c.286 0 .57.064.831.188.262.125.496.306.688.532.192.227.338.494.427.785.09.29.121.597.093.901l-3.28 35.002a2.234 2.234 0 0 1-.661 1.405 1.968 1.968 0 0 1-1.376.562H64.77Zm39.312-19.688c0 .58-.216 1.137-.6 1.547-.384.41-.905.64-1.448.641h-4.292l1.024-10.938h3.268c.543 0 1.064.231 1.448.642.384.41.6.966.6 1.546v6.563Z" fill="#2F4CDD"/></svg>