<svg viewBox="0 0 36 36" fill="none" xmlns="http://www.w3.org/2000/svg"><path d="M33 24.675v4.375c.002.406-.084.808-.251 1.18a2.92 2.92 0 0 1-.72.981 3.02 3.02 0 0 1-1.068.614 3.08 3.08 0 0 1-1.231.142 30.235 30.235 0 0 1-12.945-4.477 28.86 28.86 0 0 1-9-8.75A28.348 28.348 0 0 1 3.18 6.096a2.84 2.84 0 0 1 .145-1.194 2.9 2.9 0 0 1 .627-1.035 3 3 0 0 1 1.004-.702 3.073 3.073 0 0 1 1.209-.248h4.5a3.052 3.052 0 0 1 1.986.705 2.896 2.896 0 0 1 1.014 1.803c.19 1.4.542 2.775 1.05 4.098a2.84 2.84 0 0 1 .126 1.635 2.894 2.894 0 0 1-.801 1.442l-1.905 1.852a23.679 23.679 0 0 0 9 8.75l1.905-1.852a3.027 3.027 0 0 1 1.484-.779 3.081 3.081 0 0 1 1.681.123c1.36.493 2.775.836 4.215 1.02.729.1 1.394.457 1.87 1.003.476.546.728 1.243.71 1.958Z" stroke="#000" stroke-width="2" stroke-linecap="round" stroke-linejoin="round"/></svg>